<?xml version="1.0" encoding="UTF-8"?>
<svg id="_レイヤー_2" data-name="レイヤー_2" xmlns="http://www.w3.org/2000/svg" xmlns:xlink="http://www.w3.org/1999/xlink" viewBox="0 0 63 157">
  <defs>
    <style>
      .cls-1 {
        fill: none;
      }

      .cls-2 {
        fill: url(#_名称未設定グラデーション_623-3);
      }

      .cls-3 {
        fill: url(#_名称未設定グラデーション_623-2);
      }

      .cls-4 {
        fill: url(#_名称未設定グラデーション_606-4);
      }

      .cls-5 {
        fill: url(#_名称未設定グラデーション_606-3);
      }

      .cls-6 {
        fill: url(#_名称未設定グラデーション_606-2);
      }

      .cls-7 {
        fill: url(#_名称未設定グラデーション_614-5);
      }

      .cls-8 {
        fill: url(#_名称未設定グラデーション_614-4);
      }

      .cls-9 {
        fill: url(#_名称未設定グラデーション_614-3);
      }

      .cls-10 {
        fill: url(#_名称未設定グラデーション_614-2);
      }

      .cls-11 {
        fill: url(#_名称未設定グラデーション_615-2);
      }

      .cls-12 {
        fill: url(#_名称未設定グラデーション_8);
      }

      .cls-13 {
        fill: url(#_名称未設定グラデーション_8-3);
      }

      .cls-14 {
        fill: url(#_名称未設定グラデーション_8-2);
      }

      .cls-15 {
        fill: url(#_名称未設定グラデーション_628);
      }

      .cls-16 {
        fill: url(#_名称未設定グラデーション_623);
      }

      .cls-17 {
        fill: url(#_名称未設定グラデーション_614);
      }

      .cls-18 {
        fill: url(#_名称未設定グラデーション_615);
      }

      .cls-19 {
        fill: url(#_名称未設定グラデーション_606);
      }

      .cls-20 {
        fill: url(#_名称未設定グラデーション_631);
      }
    </style>
    <linearGradient id="_名称未設定グラデーション_606" data-name="名称未設定グラデーション 606" x1="8.71" y1="132.94" x2="29.77" y2="132.94" gradientUnits="userSpaceOnUse">
      <stop offset="0" stop-color="#ff8359"/>
      <stop offset="1" stop-color="#ffa275"/>
    </linearGradient>
    <linearGradient id="_名称未設定グラデーション_631" data-name="名称未設定グラデーション 631" x1="8.69" y1="94.97" x2="63" y2="94.97" gradientUnits="userSpaceOnUse">
      <stop offset="0" stop-color="#448bf5"/>
      <stop offset="1" stop-color="#5d79f5"/>
    </linearGradient>
    <linearGradient id="_名称未設定グラデーション_614" data-name="名称未設定グラデーション 614" x1="42.39" y1="19.37" x2="53.29" y2="19.37" gradientUnits="userSpaceOnUse">
      <stop offset="0" stop-color="#f7e5c4"/>
      <stop offset="1" stop-color="#fae7a4"/>
    </linearGradient>
    <linearGradient id="_名称未設定グラデーション_8" data-name="名称未設定グラデーション 8" x1="27.75" y1="36.95" x2="59.1" y2="36.95" gradientUnits="userSpaceOnUse">
      <stop offset="0" stop-color="#ffca45"/>
      <stop offset="1" stop-color="#ffe861"/>
    </linearGradient>
    <linearGradient id="_名称未設定グラデーション_623" data-name="名称未設定グラデーション 623" x1="12.84" y1="12.62" x2="22.89" y2="12.62" gradientUnits="userSpaceOnUse">
      <stop offset="0" stop-color="#53e059"/>
      <stop offset="1" stop-color="#35e391"/>
    </linearGradient>
    <linearGradient id="_名称未設定グラデーション_614-2" data-name="名称未設定グラデーション 614" x1="14.64" y1="18.07" x2="31.21" y2="18.07" gradientTransform="translate(39.71 -5.81) rotate(86.86)" xlink:href="#_名称未設定グラデーション_614"/>
    <linearGradient id="_名称未設定グラデーション_614-3" data-name="名称未設定グラデーション 614" x1="12.97" y1="18.89" x2="16.38" y2="18.89" xlink:href="#_名称未設定グラデーション_614"/>
    <linearGradient id="_名称未設定グラデーション_623-2" data-name="名称未設定グラデーション 623" x1="14.06" y1="13.29" x2="22.11" y2="13.29" xlink:href="#_名称未設定グラデーション_623"/>
    <linearGradient id="_名称未設定グラデーション_606-2" data-name="名称未設定グラデーション 606" x1="3.71" y1="45.88" x2="38.07" y2="45.88" xlink:href="#_名称未設定グラデーション_606"/>
    <linearGradient id="_名称未設定グラデーション_623-3" data-name="名称未設定グラデーション 623" x1="20.66" y1="11.32" x2="32.92" y2="11.32" xlink:href="#_名称未設定グラデーション_623"/>
    <linearGradient id="_名称未設定グラデーション_8-2" data-name="名称未設定グラデーション 8" x1="0" y1="44.74" x2="15.68" y2="44.74" xlink:href="#_名称未設定グラデーション_8"/>
    <linearGradient id="_名称未設定グラデーション_614-4" data-name="名称未設定グラデーション 614" x1="22.19" y1="39.54" x2="26.27" y2="39.54" xlink:href="#_名称未設定グラデーション_614"/>
    <linearGradient id="_名称未設定グラデーション_628" data-name="名称未設定グラデーション 628" x1="24.14" y1="33.04" x2="34.51" y2="33.04" gradientUnits="userSpaceOnUse">
      <stop offset="0" stop-color="#3cd85b"/>
      <stop offset="1" stop-color="#1fdba6"/>
    </linearGradient>
    <linearGradient id="_名称未設定グラデーション_614-5" data-name="名称未設定グラデーション 614" x1="23.56" y1="38.15" x2="32.16" y2="38.15" xlink:href="#_名称未設定グラデーション_614"/>
    <linearGradient id="_名称未設定グラデーション_8-3" data-name="名称未設定グラデーション 8" x1="4.55" y1="50.17" x2="29.48" y2="50.17" xlink:href="#_名称未設定グラデーション_8"/>
    <linearGradient id="_名称未設定グラデーション_606-3" data-name="名称未設定グラデーション 606" x1="29.81" y1="129.58" x2="53.35" y2="129.58" xlink:href="#_名称未設定グラデーション_606"/>
    <linearGradient id="_名称未設定グラデーション_615" data-name="名称未設定グラデーション 615" x1="8.65" y1="71.8" x2="31.72" y2="71.8" gradientUnits="userSpaceOnUse">
      <stop offset="0" stop-color="#5b91ff"/>
      <stop offset="1" stop-color="#7589ff"/>
    </linearGradient>
    <linearGradient id="_名称未設定グラデーション_615-2" data-name="名称未設定グラデーション 615" x1="21.15" y1="97.79" x2="58.85" y2="97.79" xlink:href="#_名称未設定グラデーション_615"/>
    <linearGradient id="_名称未設定グラデーション_606-4" data-name="名称未設定グラデーション 606" x1="34.2" y1="133.27" x2="59.67" y2="133.27" xlink:href="#_名称未設定グラデーション_606"/>
  </defs>
  <g id="_レイヤー_1-2" data-name="レイヤー_1">
    <g>
      <g>
        <path class="cls-19" d="M27.5,132.98s3.69,12.53-1.31,15.62c-3.14,1.94-6.9-.19-10.31-5.04s-1.95-10.92-4.18-12.84-3-7.07-3-7.07l6.46-7.09,14.6,7.75-2.26,8.67Z"/>
        <path class="cls-20" d="M9.07,65.04s-3.62,13.31,11.49,19.1c15.11,5.78,24.36,8.94,24.36,8.94l-36.13,26.41s13.99,17.91,23.7,16.16c0,0,29.17-33.32,30.46-43.16,1.29-9.83-24.92-28.04-24.92-28.04l-13.71-10.28-15.25,10.87Z"/>
        <polygon class="cls-17" points="53.29 23.69 49.83 15.26 44.03 14.49 42.39 18.98 44.68 19.71 48.64 24.24 53.29 23.69"/>
        <path class="cls-12" d="M30.56,28.87c4.18,3.54,15.95,8.66,15.95,8.66l-3.01-14s7.25-2.57,11.42.63c0,0,8.3,24.11,1.52,26.35-13.3,4.39-28.68-9.93-28.68-9.93l2.81-11.7Z"/>
        <path class="cls-16" d="M22.89,7.07s-1.69-1.38-4.41-.43c-2.95,1.03-7.37,4.82-4.93,10.32s6.69-2.25,6.69-2.25l2.65-7.64Z"/>
        <ellipse class="cls-10" cx="22.93" cy="18.07" rx="8.05" ry="8.28" transform="translate(3.62 39.97) rotate(-86.86)"/>
        <ellipse cx="21.09" cy="18.36" rx=".98" ry=".73" transform="translate(1.6 38.41) rotate(-86.86)"/>
        <ellipse cx="27.43" cy="18.33" rx=".98" ry=".73" transform="translate(7.63 44.71) rotate(-86.86)"/>
        <path d="M26.17,21.42s-1.62-.51-3.99.14c0,0,.19,2.12,1.87,2.14,1.79.02,2.12-2.29,2.12-2.29Z"/>
        <path class="cls-9" d="M16.38,18.07s-1.19-1.5-2.2-1.46c-.62.03-1.43,1.2-1.15,1.99,1.2,3.43,3.19,2.44,3.19,2.44l.16-2.97Z"/>
        <path class="cls-3" d="M20.66,11.4l-1.09-.06-2.78,4.85-.47,3.07-1.56-2.52s-1.18-3.77-.46-5.4,7.81-3.99,7.81-3.99l-1.45,4.06Z"/>
        <path class="cls-6" d="M32.91,30.15c-2.61-1.76-19.37-6.57-25.45.6-7.15,8.44-2.62,14.27,1.61,34.08,0,0,20.78-4.73,28.97-.37,0,0,.83-30.28-5.13-34.31Z"/>
        <path class="cls-2" d="M20.66,11.4c.53-3.04,1.92-6.82,5.14-5.39,9.7,4.31,7.59,11.75,4.69,10.88-3.79-1.12-7.81-6.03-7.81-6.03l-2.02.54Z"/>
        <path class="cls-14" d="M9.18,27.93c5.58.57,6.69,13.77,6.48,19.01s-3.09,17.51-9.68,14.05S-.74,39.91.82,34.92c1.56-4.99,4.75-7.36,8.36-6.99Z"/>
        <polygon class="cls-8" points="26.27 39.42 24.97 35.65 23.7 35.92 22.19 41.06 25.09 43.44 26.27 39.42"/>
        <path class="cls-15" d="M30.37,39.19l4.1-10.45c.13-.34-.07-.72-.43-.8l-6.63-1.41c-.31-.07-.62.13-.7.44l-2.56,10.65c-.08.32.12.64.44.71l5.09,1.21c.29.07.58-.08.69-.36Z"/>
        <polygon class="cls-7" points="23.56 41.75 26.44 37.09 27.56 33.28 28.78 33.62 28.31 36.9 30.5 32 31.75 32.7 31.31 34.19 32.16 35.17 31.65 36.42 32.05 37.23 30.3 39.67 25.88 44.31 23.56 41.75"/>
        <path class="cls-13" d="M11.04,46.69s6.25-6.15,10.42-7.52c0,0,5.49,4.39,8.02,8.54,0,0-16.33,17.29-22.86,12.69s4.42-13.7,4.42-13.7Z"/>
        <path class="cls-5" d="M34.23,142.09c-4.36-13.37-4.43-19.63-4.43-19.63l14.8-5.39,8.74,12.12-19.12,12.9Z"/>
        <path class="cls-18" d="M9.07,64.82s-2.28,16.12,3.74,18.25c20.41,7.22,15.17-8.19,15.17-8.19,0,0,8.3-19.7.15-15.77-8.15,3.94-15.9,3.59-19.07,5.71Z"/>
        <path class="cls-11" d="M28.14,59.12c10.57-3.22,13.14,9.45,16.58,24.58s14.14,39.61,14.14,39.61c0,0-14.25-6.24-33.99,13.66,0,0-2.32-45.94-2.85-56.58s-3.54-18.32,6.13-21.27Z"/>
        <path class="cls-4" d="M35.88,136.12s4.18-16.67,16.54-15.77c14.53,1.05,3.12,17.24.74,22.27s-25.26,6.4-17.28-6.5Z"/>
      </g>
      <rect class="cls-1" width="63" height="157"/>
    </g>
  </g>
</svg>