<?xml version="1.0" encoding="UTF-8"?>
<svg id="_レイヤー_2" data-name="レイヤー_2" xmlns="http://www.w3.org/2000/svg" xmlns:xlink="http://www.w3.org/1999/xlink" viewBox="0 0 63 157">
  <defs>
    <style>
      .cls-1 {
        fill: none;
      }

      .cls-2 {
        fill: url(#_名称未設定グラデーション_104-2);
      }

      .cls-3 {
        fill: url(#_名称未設定グラデーション_104-3);
      }

      .cls-4 {
        fill: url(#_名称未設定グラデーション_623-3);
      }

      .cls-5 {
        fill: url(#_名称未設定グラデーション_623-2);
      }

      .cls-6 {
        fill: url(#_名称未設定グラデーション_614-5);
      }

      .cls-7 {
        fill: url(#_名称未設定グラデーション_614-4);
      }

      .cls-8 {
        fill: url(#_名称未設定グラデーション_614-3);
      }

      .cls-9 {
        fill: url(#_名称未設定グラデーション_614-2);
      }

      .cls-10 {
        fill: url(#_名称未設定グラデーション_488-3);
      }

      .cls-11 {
        fill: url(#_名称未設定グラデーション_488-2);
      }

      .cls-12 {
        fill: url(#_名称未設定グラデーション_628);
      }

      .cls-13 {
        fill: url(#_名称未設定グラデーション_623);
      }

      .cls-14 {
        fill: url(#_名称未設定グラデーション_614);
      }

      .cls-15 {
        fill: url(#_名称未設定グラデーション_616);
      }

      .cls-16 {
        fill: url(#_名称未設定グラデーション_104);
      }

      .cls-17 {
        fill: url(#_名称未設定グラデーション_488);
      }

      .cls-18 {
        fill: url(#_名称未設定グラデーション_407);
      }
    </style>
    <linearGradient id="_名称未設定グラデーション_488" data-name="名称未設定グラデーション 488" x1="22.12" y1="139.98" x2="54.34" y2="139.98" gradientUnits="userSpaceOnUse">
      <stop offset="0" stop-color="#5bdaff"/>
      <stop offset="1" stop-color="#61b2ff"/>
    </linearGradient>
    <linearGradient id="_名称未設定グラデーション_488-2" data-name="名称未設定グラデーション 488" x1="37.19" y1="120.94" x2="60.86" y2="120.94" xlink:href="#_名称未設定グラデーション_488"/>
    <linearGradient id="_名称未設定グラデーション_616" data-name="名称未設定グラデーション 616" x1="1" y1="91" x2="62" y2="91" gradientUnits="userSpaceOnUse">
      <stop offset="0" stop-color="#d889f5"/>
      <stop offset="1" stop-color="#dd77f5"/>
    </linearGradient>
    <linearGradient id="_名称未設定グラデーション_407" data-name="名称未設定グラデーション 407" x1="18.05" y1="100.05" x2="57.22" y2="100.05" gradientUnits="userSpaceOnUse">
      <stop offset="0" stop-color="#e18fff"/>
      <stop offset="1" stop-color="#e67cff"/>
    </linearGradient>
    <linearGradient id="_名称未設定グラデーション_623" data-name="名称未設定グラデーション 623" x1="33.19" y1="17.84" x2="55.34" y2="17.84" gradientUnits="userSpaceOnUse">
      <stop offset="0" stop-color="#53e059"/>
      <stop offset="1" stop-color="#35e391"/>
    </linearGradient>
    <linearGradient id="_名称未設定グラデーション_614" data-name="名称未設定グラデーション 614" x1="34.31" y1="16.35" x2="51.18" y2="16.35" gradientUnits="userSpaceOnUse">
      <stop offset="0" stop-color="#f7e5c4"/>
      <stop offset="1" stop-color="#fae7a4"/>
    </linearGradient>
    <linearGradient id="_名称未設定グラデーション_623-2" data-name="名称未設定グラデーション 623" x1="32.19" y1="9.98" x2="46.67" y2="9.98" xlink:href="#_名称未設定グラデーション_623"/>
    <linearGradient id="_名称未設定グラデーション_614-2" data-name="名称未設定グラデーション 614" x1="49.41" y1="17.79" x2="52.99" y2="17.79" xlink:href="#_名称未設定グラデーション_614"/>
    <linearGradient id="_名称未設定グラデーション_623-3" data-name="名称未設定グラデーション 623" x1="41.26" y1="11.03" x2="53.74" y2="11.03" xlink:href="#_名称未設定グラデーション_623"/>
    <linearGradient id="_名称未設定グラデーション_104" data-name="名称未設定グラデーション 104" x1="4.84" y1="32.48" x2="41.07" y2="32.48" gradientUnits="userSpaceOnUse">
      <stop offset="0" stop-color="#ff7da3"/>
      <stop offset="1" stop-color="#ff9cba"/>
    </linearGradient>
    <linearGradient id="_名称未設定グラデーション_614-3" data-name="名称未設定グラデーション 614" x1="3.7" y1="14.1" x2="16.86" y2="14.1" xlink:href="#_名称未設定グラデーション_614"/>
    <linearGradient id="_名称未設定グラデーション_488-3" data-name="名称未設定グラデーション 488" x1="22.95" y1="46.56" x2="57.63" y2="46.56" xlink:href="#_名称未設定グラデーション_488"/>
    <linearGradient id="_名称未設定グラデーション_104-2" data-name="名称未設定グラデーション 104" x1="46.31" y1="45.37" x2="59.75" y2="45.37" xlink:href="#_名称未設定グラデーション_104"/>
    <linearGradient id="_名称未設定グラデーション_104-3" data-name="名称未設定グラデーション 104" x1="33.31" y1="48.78" x2="59.06" y2="48.78" xlink:href="#_名称未設定グラデーション_104"/>
    <linearGradient id="_名称未設定グラデーション_614-4" data-name="名称未設定グラデーション 614" x1="37.19" y1="37.1" x2="40.68" y2="37.1" xlink:href="#_名称未設定グラデーション_614"/>
    <linearGradient id="_名称未設定グラデーション_628" data-name="名称未設定グラデーション 628" x1="32.25" y1="29.95" x2="40.29" y2="29.95" gradientUnits="userSpaceOnUse">
      <stop offset="0" stop-color="#3cd85b"/>
      <stop offset="1" stop-color="#1fdba6"/>
    </linearGradient>
    <linearGradient id="_名称未設定グラデーション_614-5" data-name="名称未設定グラデーション 614" x1="33.19" y1="34.82" x2="39.15" y2="34.82" xlink:href="#_名称未設定グラデーション_614"/>
  </defs>
  <g id="_レイヤー_1-2" data-name="レイヤー_1">
    <g>
      <g>
        <path class="cls-17" d="M31.06,135.54s-11.25,9.29-8.52,15.09c1.71,3.65,6.53,3.92,12.72,1.5s8.63-8.85,11.89-9.29,7.19-4.7,7.19-4.7l-1.58-10.33-18.4-1.57-3.3,9.29Z"/>
        <path class="cls-11" d="M39.34,120.37s-4.7,13.32.78,17.05c3.44,2.34,7.76.31,11.8-4.69s2.68-11.71,5.26-13.62,3.68-7.44,3.68-7.44l-6.93-8.18-16.74,7.31,2.16,9.58Z"/>
        <path class="cls-15" d="M25.04,62.79S2.54,76.9,1.12,82.22c-2.66,9.96,39.65,40.98,39.65,40.98,0,0,19.46-6.67,21.23-17.09l-41.38-21.88,18.9-16.56,4.22-8.63s-6.4-1.61-18.7,3.76Z"/>
        <path class="cls-18" d="M53.88,66.85c-4.09,9.77-16.96,19.91-16.96,19.91,0,0,16.43,31.65,20.3,47.49,0,0-19.02,11.43-37.76.17,0,0-.67-38.49-1.39-46.83-.72-8.34,18.1-25.37,18.1-25.37,0,0,13.52-5.56,17.71,4.62Z"/>
        <path class="cls-13" d="M53.35,11.58c1.09,3.37-.26,7.87,2,10.12,0,0-14.49,5.41-22.15,0,0,0,3.83-7.03,3.45-10.12h16.7Z"/>
        <circle class="cls-14" cx="42.74" cy="16.35" r="8.44"/>
        <path class="cls-5" d="M46.67,8.79c-.37-3.19-2.78-6.51-6.11-5.2-10.03,3.93-9.43,12.04-6.51,12.99,3.76,1.22,10.73-9.14,10.73-9.14l1.89,1.36Z"/>
        <ellipse cx="44.82" cy="17.41" rx=".74" ry="1.02"/>
        <ellipse cx="38.42" cy="17.02" rx=".74" ry="1.02"/>
        <path d="M39.52,19.88s1.66-.43,4.02.38c0,0-.53,2.21-2.21,1.97-1.27-.18-1.8-2.35-1.8-2.35Z"/>
        <path class="cls-9" d="M49.41,16.67s4.64-2.8,3.36.74-3.36,2.35-3.36,2.35v-3.09Z"/>
        <path class="cls-4" d="M41.26,5.97s3,8.53,9.92,11.66c3.33,1.5,4.24-8.08-2.4-12.03-3.73-2.22-7.29-1.4-7.52.37Z"/>
        <path class="cls-16" d="M37.23,26.65c-8.65,2.18-14.02,9.86-14.02,9.86,0,0-2.68-14.25-5.15-18.96,0,0-9.52,2.26-13.22,5.67,0,0,4.8,25.14,12.45,24.15s20.03-6.66,22.97-11.6-3.03-9.12-3.03-9.12Z"/>
        <path class="cls-8" d="M14.9,20.12s2.26-7.2,1.93-7.92-1.6-1.05-1.6-1.05l-1.05,2.32-1.71-6.12-1.54-.31.94,5.83-2.98-6.34-1.27.52,2.15,6.29-3.26-4.54-1.21.72,2.54,4.74-3.42-2.21-.72.88,3.37,2.58s.22,3.1.99,4.62,3.69,2.57,6.84,0Z"/>
        <path class="cls-10" d="M40.87,25.72c11.85-.46,18.33,10.42,16.44,27.65-1.09,9.94-3.43,14.04-3.43,14.04,0,0-17.17-8.67-30.93-3.4,0,0,7.37-8.6,8.71-19.69-3.46-6.86.9-18.27,9.21-18.6Z"/>
        <path class="cls-2" d="M51.18,29.17c7.57,2.12,10,21.5,7.77,29.48s-10.24-.66-11.45-10.4c-1.36-10.92-2.89-20.92,3.68-19.08Z"/>
        <path class="cls-3" d="M55.92,61.79c-7.62.45-19.41-12.47-22.61-14.39,0,0,1.08-9.29,10.21-11.65,0,0,12.13,12.23,14.11,15.57s2.3,10.24-1.71,10.47Z"/>
        <polygon class="cls-7" points="37.19 36.63 39.52 33.21 40.68 33.85 40.68 39.41 37.19 40.98 37.19 36.63"/>
        <path class="cls-12" d="M33.26,35.26l-1-10.72c-.03-.37.27-.68.63-.65l6.84.44c.33.02.58.3.56.63l-.54,10.49c-.02.33-.29.58-.62.57l-5.3-.21c-.3-.01-.54-.24-.57-.54Z"/>
        <polygon class="cls-6" points="39.15 39.72 37.68 34.25 37.68 30.12 36.39 30.12 35.92 33.53 35.18 28.01 33.77 28.37 33.77 31.39 33.19 32.98 33.19 35.75 36.17 41.63 39.15 39.72"/>
      </g>
      <rect class="cls-1" width="63" height="157"/>
    </g>
  </g>
</svg>