<svg width="243" height="20" viewBox="0 0 243 20" fill="none" xmlns="http://www.w3.org/2000/svg">
<g clip-path="url(#clip0_2225_622)">
<path d="M20.1999 5.14L20.1099 5.06V3.66L20.1899 3.58L21.7499 3.62H23.5299L25.1299 3.58L25.2099 3.65V5.07L25.1299 5.14L23.5299 5.1H21.7499L20.1999 5.14ZM22.1799 13.12V13.85H20.5399L20.6099 11.45V10.79L20.5699 9.46L20.6499 9.37L22.1999 9.41H23.0599L24.7299 9.37L24.8199 9.46L24.7799 10.79V11.5L24.8499 13.69H23.1599V13.12H22.1899H22.1799ZM28.9099 3.88C29.2899 2.98 29.5699 2.11 29.7799 1.29L29.8999 1.25L31.5299 1.72L31.5599 1.87C31.2999 2.55 30.9699 3.23 30.6199 3.89H31.0499L32.6399 3.85L32.7299 3.94V5.36L32.6399 5.45L31.0499 5.41H30.5599V6.51H31.2099L32.3899 6.47L32.4799 6.56V7.92L32.3899 8.01L31.2099 7.97H30.5599V9.11H31.2099L32.3899 9.07L32.4799 9.16V10.52L32.3899 10.61L31.2099 10.57H30.5599V11.81H31.5299L32.8599 11.77L32.9699 11.86V13.28L32.8599 13.37L31.5299 13.33H27.5799V13.98H25.7599L25.8099 9.51V7.08C25.8099 7.08 25.7399 7.17 25.6999 7.21C25.6099 7.32 25.5499 7.37 25.4899 7.37C25.4299 7.37 25.3499 7.33 25.2799 7.25L24.6199 6.63V6.95L24.5399 7.02L23.1399 6.98H22.2299L20.8499 7.02L20.7599 6.94V5.64L20.8399 5.56L22.2399 5.6H23.1499L24.5499 5.56L24.6299 5.63V5.94C25.7099 4.54 26.4599 2.93 26.9199 1.3H27.0099L28.5599 1.82L28.5899 1.97C28.3599 2.62 28.0999 3.26 27.8099 3.89H28.9299L28.9099 3.88ZM20.8399 3.16L20.7499 3.08V1.78L20.8299 1.7L22.2299 1.74H23.1399L24.5399 1.7L24.6199 1.77V3.1L24.5399 3.17L23.1399 3.13H22.2299L20.8499 3.17L20.8399 3.16ZM20.8399 8.92L20.7499 8.84V7.54L20.8299 7.46L22.2299 7.5H23.1399L24.5399 7.46L24.6199 7.53V8.86L24.5399 8.93L23.1399 8.89H22.2299L20.8499 8.93L20.8399 8.92ZM23.1399 10.77H22.1699V11.77H23.1399V10.77ZM27.5799 6.51H28.8299V5.41H27.5799V6.51ZM27.5799 9.12H28.8299V7.98H27.5799V9.12ZM27.5799 11.82H28.8299V10.58H27.5799V11.82Z" fill="black"/>
<path d="M35.8998 12.86C36.6298 10.55 37.2998 8.52 37.9798 6.49C37.3598 6.58 36.6298 6.68 35.9598 6.75L35.8498 6.67L35.5498 5.06L35.6298 4.97C36.6898 4.89 37.6898 4.77 38.6198 4.64C38.9398 3.72 39.2498 2.78 39.5998 1.75L39.7398 1.68L41.5598 2.12L41.5998 2.27C41.3198 3.03 41.0598 3.73 40.8298 4.38C41.0998 4.37 41.3498 4.35 41.6098 4.35C42.7298 4.35 43.7798 5.03 43.7598 6.97C43.7498 8.73 43.4998 10.48 43.1398 11.52C42.6598 13.02 41.7698 13.34 41.0598 13.34C40.5598 13.34 39.9998 13.26 39.3998 13.1C39.3098 13.07 39.2598 13.05 39.2498 12.86L39.0898 10.97C39.5198 11.13 40.1098 11.26 40.4398 11.26C40.8698 11.26 41.0598 11.18 41.2598 10.55C41.4698 9.87 41.7498 8.24 41.7498 7.08C41.7498 6.28 41.6598 6.12 41.0598 6.12C40.8198 6.12 40.5098 6.15 40.1698 6.17C39.2698 8.7 38.5998 10.76 37.8598 13.34L37.7098 13.38L35.9298 12.94L35.8898 12.83L35.8998 12.86ZM43.9098 4.86L45.3398 3.97H45.4798C46.6198 5.21 47.4798 6.66 48.0598 8.16L48.0098 8.29L46.3298 9.25L46.2098 9.22C45.6898 7.69 44.9198 6.12 43.8998 4.99L43.9298 4.86H43.9098ZM44.6898 2.42L45.3898 1.93H45.5298C46.0298 2.33 46.4998 2.79 46.8998 3.33V3.46L46.1498 3.98H46.0098C45.5898 3.43 45.2198 3 44.6798 2.54V2.42H44.6898ZM45.9598 1.58L46.6498 1.09H46.7898C47.2898 1.49 47.7198 1.92 48.1198 2.45V2.58L47.4098 3.08H47.2698C46.8498 2.53 46.4898 2.15 45.9498 1.7V1.58H45.9598Z" fill="black"/>
<path d="M54.0196 7.59999C54.0196 8.39999 53.3696 9.03999 52.5696 9.03999C51.7696 9.03999 51.1196 8.39999 51.1196 7.59999C51.1196 6.79999 51.7696 6.15999 52.5696 6.15999C53.3696 6.15999 54.0196 6.79999 54.0196 7.59999Z" fill="black"/>
<path d="M60.5098 13.99H58.6098L58.6798 9.88V8.11C58.4798 8.61 58.2598 9.06 58.0198 9.4C57.9698 9.48 57.8998 9.52 57.8498 9.52C57.7798 9.52 57.7298 9.47 57.6998 9.37L57.0898 7.51C58.1398 5.75 58.8698 3.71 59.3098 1.38L59.4298 1.31L61.1198 1.72L61.1898 1.84C60.9598 2.72 60.7298 3.48 60.4998 4.15V13.98L60.5098 13.99ZM63.2398 3.87L61.2398 3.91L61.1498 3.82V2.28L61.2398 2.19L63.2398 2.23H67.6898L69.8198 2.19L69.9098 2.28V3.82L69.8198 3.91L68.6998 3.88V8.89L68.7498 11.79C68.7498 13.36 68.1698 13.8 66.0098 13.8C65.7398 13.8 65.7098 13.77 65.6598 13.64L64.9098 11.92C65.5398 11.92 66.1598 11.89 66.3898 11.87C66.6698 11.84 66.7498 11.76 66.7498 11.44V3.87H63.2398ZM63.0898 9.66V10.54H61.3798L61.4498 8.05V6.4L61.4098 5.02L61.4898 4.93L62.9398 4.97H64.3398L65.7798 4.93L65.8698 5.02L65.8298 6.4V7.85L65.8998 10.3H64.1198V9.66H63.0898ZM64.1298 8.17V6.43H63.0998V8.17H64.1298Z" fill="black"/>
<path d="M72.1099 8.68C73.6199 7.47 74.6799 6.45 75.4599 5.29C74.8099 5.34 74.1399 5.36 73.5099 5.36L73.4299 5.28L73.3799 3.64L73.4699 3.56C74.4799 3.56 75.4699 3.53 76.4699 3.47C76.7099 2.92 76.9099 2.34 77.0999 1.69L77.2099 1.62L79.0499 1.88L79.1299 1.97C78.9699 2.44 78.8099 2.83 78.6599 3.22C79.3299 3.11 80.0099 2.99 80.6799 2.84L80.7999 2.91L80.9399 4.48L80.8599 4.6C79.8799 4.8 78.7799 4.97 77.6599 5.1C77.4499 5.42 77.1499 5.83 76.8799 6.15C77.2799 6.03 77.6099 5.98 78.1399 5.98C78.9699 5.98 79.5799 6.5 79.7799 7.26C80.6299 6.94 81.5799 6.61 82.6299 6.26L82.7699 6.31L83.5999 7.95L83.5299 8.06999C82.1699 8.41999 81.0099 8.75999 80.0199 9.12C80.0499 9.64 80.0599 10.29 80.0699 10.93L79.9799 11.01L78.1999 11.08L78.0899 11V9.91C77.2699 10.29 76.8099 10.67 76.8099 11.12C76.8099 11.57 77.3499 11.69 78.5399 11.71C79.5199 11.72 80.8699 11.6 82.0499 11.43L82.1899 11.51L82.3099 13.28L82.2299 13.39C80.9499 13.5 79.8199 13.56 78.2499 13.56C75.5299 13.56 74.8199 12.43 74.8199 11.28C74.8199 10 75.9099 9.10999 77.1599 8.41C77.3999 8.27999 77.6699 8.15 77.9699 8.01C77.8999 7.68 77.6999 7.51 77.2999 7.51C76.7599 7.51 76.2399 7.64 75.7699 7.98C75.1799 8.41 74.2599 9.26 73.4299 10.14H73.2899L72.1099 8.85V8.7V8.68Z" fill="black"/>
<path d="M90.44 7.59999C90.44 8.39999 89.79 9.03999 88.99 9.03999C88.19 9.03999 87.54 8.39999 87.54 7.59999C87.54 6.79999 88.19 6.15999 88.99 6.15999C89.79 6.15999 90.44 6.79999 90.44 7.59999Z" fill="black"/>
<path d="M103.28 12.74C102.04 12.83 100.74 12.88 99.04 12.88C95.81 12.88 94.27 11.91 94.27 9.82C94.27 8.61 95.28 7.45 96.7 6.45C96.04 5.52 95.33 4.35 94.74 3.28L94.77 3.15L96.4 2.31L96.54 2.35C97.13 3.42 97.8 4.53 98.45 5.45C99.67 4.84 101.05 4.27 102.39 3.77L102.53 3.82L103.32 5.56L103.27 5.67C102.1 6.05 100.9 6.51 100.12 6.84C99.91 7.01 99.78 7.19 99.76 7.5C99.72 8.03 99.21 8.36 98.79 8.36C98.43 8.36 98.13 8.23 97.86 8C96.81 8.6 96.34 9.16 96.34 9.78C96.34 10.67 97.48 10.87 99.07 10.87C100.25 10.87 101.57 10.78 103.21 10.61L103.32 10.69L103.37 12.59L103.29 12.71L103.28 12.74ZM102.08 2.42L102.78 1.93H102.92C103.42 2.33 103.89 2.79 104.29 3.33V3.46L103.54 3.98H103.4C102.98 3.43 102.61 3 102.07 2.54V2.42H102.08ZM103.35 1.58L104.04 1.09H104.18C104.68 1.49 105.11 1.92 105.51 2.45V2.58L104.8 3.08H104.66C104.24 2.53 103.88 2.15 103.34 1.7V1.58H103.35Z" fill="black"/>
<path d="M111.7 5.69999C113.04 4.39999 114 3.87999 115.09 3.87999C116.18 3.87999 117.15 4.34999 117.15 6.01999C117.15 6.91999 117.06 7.69999 116.99 8.36999C116.94 8.96999 116.88 9.73999 116.88 10.06C116.88 10.42 116.92 10.54 117.19 10.54C117.43 10.54 118.17 10.19 118.87 9.28999L119.42 11.07C119.5 11.31 119.45 11.4 119.27 11.56C118.46 12.3 117.63 12.65 116.72 12.65C115.69 12.65 114.85 12.16 114.85 10.56C114.85 9.94999 114.92 9.15999 114.98 8.38999C115.03 7.78999 115.1 7.08999 115.1 6.50999C115.1 5.86999 115.01 5.70999 114.63 5.70999C114.21 5.70999 113.73 5.99999 113.26 6.36999C112.79 6.74999 112.23 7.29999 111.63 7.85999C111.6 9.25999 111.63 10.73 111.71 12.63C111.71 13.22 111.31 13.68 110.63 13.68C110.09 13.68 109.81 13.3 109.65 12.84C109.51 12.48 109.18 11.86 108.6 11.2C108.4 11.48 108.2 11.79 107.95 12.13H107.8L106.72 10.71V10.56C107.78 9.14999 108.72 8.02999 109.76 6.76999C109.77 6.47999 109.77 6.17999 109.77 5.88999C109.22 6.08999 108.63 6.36999 107.97 6.74999L107.82 6.70999L107.08 5.24999L107.12 5.09999C108.08 4.60999 109.04 4.21999 109.84 3.95999C109.87 3.33999 109.89 2.67999 109.93 1.98999L110.02 1.90999H111.78L111.87 2.02999C111.83 2.63999 111.79 3.23999 111.76 3.78999C111.95 3.93999 112.14 4.15999 112.14 4.42999C112.14 4.66999 112.05 4.87999 111.68 5.39999V5.65999H111.66L111.7 5.69999ZM109.6 11.09C109.76 11.14 109.83 11.09 109.83 10.83V9.50999C109.55 9.90999 109.2 10.41 108.92 10.81C109.18 10.93 109.43 11.04 109.61 11.09H109.6Z" fill="black"/>
<path d="M128.76 13.44C126.69 11.87 124.71 10.66 122.14 9.34C121.59 9.06 121.24 8.65 121.24 8.04C121.24 7.49 121.54 7.08 121.99 6.64C123.52 5.16 125.55 3.55 127.61 1.97H127.76L129.16 3.5V3.63C127.26 4.91 125.23 6.33 123.93 7.46C123.79 7.57 123.72 7.71 123.73 7.81C123.74 7.9 123.84 8 123.96 8.05C125.69 8.83 128.13 10.22 130.2 11.64V11.77L128.88 13.42H128.76V13.43V13.44Z" fill="black"/>
<path d="M133.68 4.91999L135.36 5.23999L135.44 5.35999C135.17 6.32999 135.02 7.19999 134.9 8.18999C135.92 7.13999 137.28 6.56999 138.75 6.56999C141 6.56999 142.22 7.94999 142.22 9.62999C142.22 12.22 139.68 13.34 135.93 13.54C135.69 13.54 135.61 13.53 135.5 13.37L134.38 11.75C137.98 11.64 139.99 10.94 139.99 9.65999C139.99 8.85999 139.71 8.27999 138.59 8.27999C137.38 8.27999 135.89 8.93999 134.8 10.83L134.67 10.9L133.03 10.76L132.94 10.64C132.91 8.79999 133.15 6.88999 133.56 4.98999L133.7 4.93999L133.68 4.91999ZM134.69 3.19999L135.53 1.74999L135.66 1.67999C136.71 1.95999 137.7 2.28999 138.91 2.91999L138.94 3.04999L138.03 4.60999L137.89 4.63999C136.8 4.03999 135.9 3.63999 134.73 3.30999L134.69 3.19999Z" fill="black"/>
<path d="M144.49 3.15L146.39 3.22L146.48 3.31C146.36 4.79 146.32 6.1 146.32 6.87C146.32 8.04 146.44 8.82 146.63 9.5C146.78 10.02 146.95 10.4 147.25 10.4C147.61 10.4 148.07 9.68 148.38 8.46L149.73 10.14C149.82 10.26 149.82 10.33 149.77 10.47C149.23 11.85 148.36 12.85 147.27 12.85C146.4 12.85 145.63 12.24 145.09 11.16C144.67 10.32 144.31 8.83 144.31 7.02C144.31 5.94 144.34 4.67 144.4 3.22L144.49 3.14V3.15ZM150.87 5.46L152.16 4.44L152.31 4.41C153.82 5.42 155.09 6.93 155.87 8.71L155.83 8.83L154.12 9.88L153.98 9.84C153.25 8 152.23 6.55 150.83 5.58L150.86 5.46H150.87Z" fill="black"/>
<path d="M220.46 12.51C220.51 12.1 220.4 11.7 220.14 11.37C219.88 11.04 219.52 10.83 219.11 10.78C219.05 10.78 218.99 10.77 218.93 10.77C218.16 10.77 217.46 11.36 217.36 12.13C217.31 12.53 217.43 12.94 217.68 13.26C217.94 13.58 218.31 13.79 218.72 13.84C219.13 13.89 219.53 13.78 219.86 13.52C220.19 13.27 220.4 12.9 220.45 12.5L220.46 12.51Z" fill="black"/>
<path d="M225 4.4C225.15 3.17 224.87 2.17 224.15 1.42C223.45 0.679996 222.37 0.219996 220.94 0.0499955C218.12 -0.290004 216.2 0.869996 215.36 3.41L217.88 4.16C218.37 2.47 219.21 1.72 220.45 1.87C221.53 2 222.18 2.9 222.04 4.06C221.91 5.09 221.41 5.78 220.14 6.67C218.91 7.55 218.42 8.2 218.26 9.18999L220.24 9.43C220.54 8.77 221.07 8.31 222.36 7.6C224.14 6.62 224.83 5.78 225 4.39V4.4Z" fill="black"/>
<path d="M158.91 5.04L158.82 4.96V3.52999L158.9 3.45L160.32 3.49V0.979995L160.43 0.869995H161.94L162.06 0.959995V3.47L163.23 3.44L163.31 3.50999V4.97L163.23 5.04L162.06 5.01V6.55C162.43 6.43 162.81 6.29999 163.16 6.16V7.47C163.16 7.70999 163.11 7.77 162.88 7.88C162.64 7.99 162.36 8.1 162.06 8.22V8.63L162.13 11.56C162.13 13.09 161.55 13.48 159.88 13.48C159.72 13.48 159.68 13.45 159.63 13.32L158.89 11.68C159.38 11.68 159.73 11.65 159.97 11.63C160.25 11.6 160.33 11.52 160.33 11.21V8.85999C160.01 8.97999 159.66 9.08 159.31 9.2L159.19 9.13L158.66 7.59L158.73 7.47C159.27 7.35 159.82 7.22 160.34 7.09V5L158.93 5.04H158.91ZM166.31 4.04H165.53L163.92 4.08L163.83 4.01V2.59L163.91 2.5L165.53 2.54H166.31V0.979995L166.4 0.869995H168.13L168.22 0.959995V2.54H169.12L170.7 2.5L170.81 2.58V4L170.74 4.08L169.12 4.04H168.22V5.17H169.68L171.38 5.13L171.46 5.2V6.63L171.37 6.72L169.68 6.68H165.29L163.47 6.72L163.38 6.64V5.19L163.46 5.12L165.3 5.16H166.31V4.03V4.04ZM167.93 7.08L168.04 6.95H169.66L169.78 7.07V7.85L171.2 7.81L171.28 7.88V9.33L171.19 9.42L169.78 9.38V10.18L169.83 11.84C169.83 13.02 169.29 13.46 167.44 13.46C167.18 13.46 167.15 13.43 167.09 13.3L166.45 11.71C167.08 11.7 167.34 11.68 167.57 11.66C167.85 11.65 167.93 11.57 167.93 11.25V9.38H165.22L163.48 9.42L163.39 9.34V7.88L163.47 7.81L165.22 7.85H167.93V7.09V7.08ZM165.47 9.45H165.6C166.08 9.83 166.65 10.4 167.07 10.96V11.08L165.68 12.09H165.56C165.16 11.5 164.66 10.9 164.18 10.46L164.21 10.34L165.47 9.43999V9.45Z" fill="black"/>
<path d="M174.13 3.62999C175.04 3.62999 175.91 3.59999 176.79 3.53999C176.92 2.82999 177.02 2.08999 177.12 1.31999L177.21 1.23999L179.09 1.36999L179.16 1.45999C179.05 2.11999 178.96 2.72999 178.84 3.30999C179.82 3.14999 180.79 2.96999 181.76 2.69999L181.85 2.76999L182.04 4.46999L181.97 4.58999C180.84 4.83999 179.64 5.03999 178.41 5.17999C178.22 5.92999 178 6.63999 177.73 7.33999C178.58 6.83999 179.66 6.57999 180.83 6.57999C182.47 6.57999 184.23 7.47999 184.23 9.45999C184.23 11.44 182.58 12.88 178.39 13.13C178.22 13.14 178.13 13.09 178.03 12.92L177.09 11.32C180.64 11.31 182.02 10.4 182.02 9.30999C182.02 8.55999 181.32 8.21999 180.36 8.20999C178.94 8.19999 177.49 8.88999 176.53 10.66L176.4 10.7L174.78 9.90999L174.75 9.78999C175.52 8.27999 176.04 6.91999 176.4 5.39999C175.68 5.44999 174.95 5.48999 174.22 5.50999L174.14 5.41999L174.03 3.75999L174.12 3.64999L174.13 3.62999Z" fill="black"/>
<path d="M190.55 5.26999L188.34 5.30999L188.25 5.21999V4.68999H186.82L186.89 3.23999V2.99999L186.85 1.94999L186.94 1.85999L189.15 1.89999H191.65V0.939991L191.74 0.849991H193.52L193.61 0.939991V1.89999H196.28L198.47 1.85999L198.58 1.94999L198.54 2.94999V3.23999L198.61 4.68999H197.12V5.21999L197.03 5.30999L194.84 5.26999H193.31C193.29 5.34999 193.26 5.41999 193.22 5.48999C194.6 5.68999 195.73 5.89999 197.42 6.32999L197.45 6.45999L196.72 7.26999L198.81 7.22999L198.9 7.31999V8.60999L198.81 8.69999L197.08 8.66999V9.97999L197.15 11.6C197.15 12.87 196.67 13.42 194.73 13.42C194.47 13.42 194.45 13.39 194.38 13.26L194.01 12.54H192.24V12.08H190.14V12.74H188.35L188.42 11.1V10.29L188.38 9.15999L188.46 9.06999L190.45 9.10999H192.01L193.99 9.06999L194.08 9.15999L194.04 10.29V11.1L194.08 11.85C194.44 11.84 194.65 11.81 194.82 11.8C195.1 11.77 195.18 11.69 195.18 11.38V8.66999H188.91L186.7 8.70999L186.61 8.61999V7.32999L186.7 7.23999L188.44 7.26999L187.76 6.33999C189.51 6.20999 190.7 5.94999 191.3 5.32999L191.35 5.27999H190.56L190.55 5.26999ZM188.68 3.33999V3.88999L190.56 3.92999H191.72C191.73 3.77999 191.73 3.63999 191.73 3.47999V3.32999H188.68V3.33999ZM192.23 10.3H190.13V10.89H192.23V10.3ZM195.23 7.27999C194.26 6.99999 193.28 6.76999 192.28 6.53999C191.72 6.92999 191.07 7.14999 190.4 7.27999H195.23ZM193.53 3.93999H194.83L196.69 3.89999V3.34999H193.53V3.93999Z" fill="black"/>
<path d="M203.07 4.37999L202.72 2.69999L202.8 2.57999C204.82 2.12999 206.87 1.81999 208.32 1.62999C208.98 1.62999 209.54 2.13999 209.54 2.76999C209.54 3.00999 209.5 3.25999 209.3 3.44999C208.22 4.49999 207.48 5.16999 206.38 6.24999C207.02 5.92999 207.48 5.90999 208.04 5.90999C210.05 5.90999 211.39 7.26999 211.39 9.29999C211.39 11.69 209.57 13.05 206.5 13.05C204.93 13.05 203.6 12.41 203.6 10.91C203.6 10.06 204.56 9.07999 205.63 9.07999C207.21 9.07999 207.97 10.11 208.33 11.03C209.11 10.66 209.35 10.04 209.35 9.11999C209.35 8.19999 208.64 7.45999 207.54 7.45999C205.64 7.45999 204.27 8.69999 202.86 10.5H202.73L201.31 9.37999V9.22999C203.13 7.14999 204.81 5.33999 206.57 3.59999C205.56 3.80999 204.39 4.08999 203.17 4.42999L203.06 4.35999L203.07 4.37999ZM205.77 10.63C205.51 10.63 205.27 10.74 205.27 10.97C205.27 11.25 205.57 11.5 206.25 11.5C206.44 11.5 206.57 11.49 206.68 11.46C206.55 10.89 206.1 10.63 205.77 10.63Z" fill="black"/>
<path d="M226.63 19.41L237.79 0L242.45 3.49L226.63 19.41Z" fill="black"/>
<path d="M15.82 19.41L4.65 0L0 3.49L15.82 19.41Z" fill="black"/>
</g>
<defs>
<clipPath id="clip0_2225_622">
<rect width="242.45" height="19.41" fill="white"/>
</clipPath>
</defs>
</svg>
